<?xml version="1.0" encoding="UTF-8"?><svg id="Layer_1" xmlns="http://www.w3.org/2000/svg" xmlns:xlink="http://www.w3.org/1999/xlink" viewBox="0 0 120 60"><defs><style>.cls-1{fill:#f5c6b3;}.cls-2{fill:#e2f0fc;}.cls-3{fill:url(#linear-gradient-2);}.cls-4{fill:#fff;}.cls-5{fill:url(#linear-gradient-17);}.cls-6{fill:#9fabbd;}.cls-7{fill:#e6ecf8;}.cls-8{fill:#7b2b1a;}.cls-9{fill:#3f466a;}.cls-10{letter-spacing:.01em;}.cls-11{fill:url(#linear-gradient-14);}.cls-12{fill:url(#linear-gradient-6);}.cls-13{clip-path:url(#clippath-2);}.cls-14{fill:#f5a89c;}.cls-15{fill:#97a3cc;}.cls-16{fill:#f39a8b;opacity:.41;}.cls-17{fill:#133a50;}.cls-18{fill:#4f5052;}.cls-19{fill:url(#linear-gradient-15);}.cls-19,.cls-20,.cls-21{opacity:.47;}.cls-22{letter-spacing:0em;}.cls-23{fill:url(#linear-gradient-11);}.cls-24{letter-spacing:-.01em;}.cls-20{fill:url(#linear-gradient-18);}.cls-25{fill:#acc1e4;}.cls-26{fill:#232c5a;}.cls-27,.cls-28,.cls-29{fill:#4f5784;}.cls-30{clip-path:url(#clippath-1);}.cls-31{fill:url(#linear-gradient-10);}.cls-32{fill:#812f51;}.cls-33{fill:#d1dbf1;}.cls-34{fill:url(#linear-gradient-16);}.cls-28{font-family:Roboto-Medium, 'Roboto Medium';font-size:.75px;}.cls-35{fill:#7ba3ce;}.cls-36{fill:#d03f47;}.cls-37{fill:url(#linear-gradient-5);}.cls-38{clip-path:url(#clippath);}.cls-39{fill:none;}.cls-40{letter-spacing:-.04em;}.cls-41{clip-path:url(#clippath-3);}.cls-42{fill:url(#linear-gradient-7);}.cls-29{font-family:BebasNeue, BebasNeue;font-size:2.27px;}.cls-43{fill:#553039;}.cls-44{fill:url(#linear-gradient-9);}.cls-45{fill:url(#linear-gradient-3);}.cls-46{fill:#b02b47;}.cls-47{fill:url(#linear-gradient);}.cls-48{fill:#b0bdd1;}.cls-21{fill:url(#linear-gradient-20);}.cls-49{letter-spacing:-.01em;}.cls-50{fill:url(#linear-gradient-19);}.cls-51{letter-spacing:0em;}.cls-52{fill:url(#linear-gradient-4);}.cls-53{fill:url(#linear-gradient-8);}.cls-54{fill:#e95060;}.cls-55{fill:url(#linear-gradient-12);}.cls-56{fill:url(#linear-gradient-13);}</style><linearGradient id="linear-gradient" x1="92" y1="48.14" x2="92" y2="49.27" gradientTransform="matrix(1, 0, 0, 1, 0, 0)" gradientUnits="userSpaceOnUse"><stop offset="0" stop-color="#eef4fb"/><stop offset=".29" stop-color="#e4edf8"/><stop offset="1" stop-color="#d0e1f3"/></linearGradient><linearGradient id="linear-gradient-2" x1="92.1" y1="37.73" x2="91.95" y2="45.21" xlink:href="#linear-gradient"/><clipPath id="clippath"><polygon class="cls-39" points="76.51 39.08 76.55 19.16 107.5 19.16 107.45 39.08 76.51 39.08"/></clipPath><linearGradient id="linear-gradient-3" x1="-253.05" y1="430.25" x2="-253.05" y2="430.96" gradientTransform="translate(-170.83 463.83) rotate(-180)" gradientUnits="userSpaceOnUse"><stop offset="0" stop-color="#f9b114"/><stop offset="1" stop-color="#ffd71c"/></linearGradient><linearGradient id="linear-gradient-4" x1="-253.81" x2="-253.81" xlink:href="#linear-gradient-3"/><linearGradient id="linear-gradient-5" x1="-254.58" x2="-254.58" xlink:href="#linear-gradient-3"/><linearGradient id="linear-gradient-6" x1="-255.34" x2="-255.34" xlink:href="#linear-gradient-3"/><linearGradient id="linear-gradient-7" x1="-256.11" x2="-256.11" xlink:href="#linear-gradient-3"/><linearGradient id="linear-gradient-8" y1="437.48" y2="438.18" xlink:href="#linear-gradient-3"/><linearGradient id="linear-gradient-9" x1="-253.81" y1="437.48" x2="-253.81" y2="438.18" xlink:href="#linear-gradient-3"/><linearGradient id="linear-gradient-10" x1="-254.58" y1="437.48" x2="-254.58" y2="438.18" xlink:href="#linear-gradient-3"/><linearGradient id="linear-gradient-11" x1="-255.34" y1="437.48" x2="-255.34" y2="438.18" xlink:href="#linear-gradient-3"/><linearGradient id="linear-gradient-12" x1="-256.11" y1="437.48" x2="-256.11" y2="438.18" gradientTransform="translate(-170.83 463.83) rotate(-180)" gradientUnits="userSpaceOnUse"><stop offset="0" stop-color="#b5b9c0"/><stop offset=".17" stop-color="#b0b5be"/><stop offset="1" stop-color="#9ca9b7"/></linearGradient><clipPath id="clippath-1"><path class="cls-39" d="M88.41,16.25l-1.07-5.92c-.04-.21,.08-.42,.27-.46l2.39-.56c.19-.04,.37,.09,.4,.3l1.07,5.92c.04,.21-.08,.42-.27,.46l-2.39,.56c-.19,.04-.37-.09-.4-.3Z"/></clipPath><linearGradient id="linear-gradient-13" x1="37.21" y1="115.56" x2="37.6" y2="108.11" gradientTransform="translate(30.23 -89.42) rotate(-11.6)" xlink:href="#linear-gradient"/><linearGradient id="linear-gradient-14" x1="37.16" y1="115.25" x2="37.41" y2="115.25" gradientTransform="translate(30.23 -89.42) rotate(-11.6)" xlink:href="#linear-gradient"/><linearGradient id="linear-gradient-15" x1="36.22" y1="109.76" x2="37.85" y2="111.62" gradientTransform="translate(30.23 -89.42) rotate(-11.6)" gradientUnits="userSpaceOnUse"><stop offset=".25" stop-color="#fcf8d1" stop-opacity="0"/><stop offset=".48" stop-color="#fcfadf" stop-opacity=".32"/><stop offset=".84" stop-color="#fefdf5" stop-opacity=".8"/><stop offset="1" stop-color="#fff"/></linearGradient><linearGradient id="linear-gradient-16" x1="37.1" y1="115.74" x2="37.5" y2="108.09" gradientTransform="translate(30.23 -89.42) rotate(-11.6)" xlink:href="#linear-gradient"/><clipPath id="clippath-2"><rect class="cls-39" x="76.97" y="26.5" width="5.19" height="2.38" rx=".8" ry=".8" transform="translate(107.25 -51.87) rotate(90)"/></clipPath><linearGradient id="linear-gradient-17" x1="80.4" y1="24.92" x2="78.85" y2="29.69" gradientTransform="matrix(1, 0, 0, 1, 0, 0)" gradientUnits="userSpaceOnUse"><stop offset="0" stop-color="#fffef9"/><stop offset=".47" stop-color="#fad7ca"/><stop offset="1" stop-color="#f6ae99"/></linearGradient><linearGradient id="linear-gradient-18" x1="78.63" y1="25.83" x2="79.91" y2="27.28" gradientTransform="matrix(1, 0, 0, 1, 0, 0)" xlink:href="#linear-gradient-15"/><clipPath id="clippath-3"><rect class="cls-39" x="76.97" y="33.55" width="5.19" height="2.38" rx=".8" ry=".8" transform="translate(114.3 -44.83) rotate(90)"/></clipPath><linearGradient id="linear-gradient-19" x1="80.4" y1="31.96" x2="78.85" y2="36.73" gradientTransform="matrix(1, 0, 0, 1, 0, 0)" gradientUnits="userSpaceOnUse"><stop offset="0" stop-color="#fffef9"/><stop offset=".65" stop-color="#9ad9f4"/><stop offset="1" stop-color="#69c8f3"/></linearGradient><linearGradient id="linear-gradient-20" x1="78.63" y1="32.87" x2="79.91" y2="34.33" gradientTransform="matrix(1, 0, 0, 1, 0, 0)" xlink:href="#linear-gradient-15"/></defs><g><g><g><polygon class="cls-48" points="97.42 49.34 86.58 49.34 87.62 44.87 96.38 44.87 97.42 49.34"/><polygon class="cls-6" points="96.75 46.44 96.38 44.87 87.62 44.87 87.26 46.44 96.75 46.44"/><polygon class="cls-47" points="100.06 49.54 83.95 49.54 84.43 48.3 99.58 48.3 100.06 49.54"/><path class="cls-27" d="M107.72,45.53h-31.49c-.48,0-.88-.45-.88-1l.06-25.69c0-.55,.4-1,.88-1h31.49c.48,0,.88,.45,.88,1l-.06,25.69c0,.55-.4,1-.88,1Z"/><path class="cls-3" d="M107.74,45.53h-31.49c-.48,0-.88-.45-.88-1v-4.23h33.26v4.23c-.01,.55-.41,1-.89,1Z"/><path class="cls-2" d="M107.74,45.59h-31.49c-.48,0-.88-.45-.88-1v-4.23h33.26v4.23c-.01,.55-.41,1-.89,1Z"/><g class="cls-38"><polygon class="cls-4" points="76.51 39.08 76.55 19.16 107.5 19.16 107.45 39.08 76.51 39.08"/></g></g><g><polygon class="cls-2" points="106.2 50.16 77.55 50.16 80.63 47.83 103.12 47.83 106.21 50.16 106.2 50.16"/><polygon class="cls-48" points="106.2 50.16 77.55 50.16 77.55 51.14 106.2 51.14 106.21 50.16 106.2 50.16"/><g><path class="cls-48" d="M82.19,48.21h-.94c-.06,0-.09-.02-.05-.05l.1-.09s.1-.05,.16-.05h.93c.06,0,.09,.02,.06,.05l-.09,.09s-.1,.05-.16,.05Z"/><path class="cls-48" d="M83.71,48.21h-.94c-.06,0-.09-.02-.06-.05l.09-.09s.1-.05,.16-.05h.93c.06,0,.09,.02,.07,.05l-.08,.09s-.09,.05-.15,.05Z"/><path class="cls-48" d="M85.23,48.21h-.94c-.06,0-.09-.02-.07-.05l.07-.09s.09-.05,.15-.05h.93c.06,0,.09,.02,.07,.05l-.06,.09s-.08,.05-.15,.05Z"/><path class="cls-48" d="M86.75,48.21h-.94c-.06,0-.1-.02-.08-.05l.06-.09s.08-.05,.14-.05h.93c.06,0,.1,.02,.08,.05l-.05,.09s-.08,.05-.14,.05Z"/><path class="cls-48" d="M88.27,48.21h-.94c-.06,0-.1-.02-.09-.05l.04-.09s.07-.05,.13-.05h.93c.06,0,.1,.02,.09,.05l-.03,.09s-.07,.05-.13,.05Z"/><path class="cls-48" d="M89.79,48.21h-.94c-.06,0-.1-.02-.09-.05l.03-.09s.06-.05,.12-.05h.93c.06,0,.1,.02,.1,.05l-.02,.09s-.06,.05-.12,.05Z"/><path class="cls-48" d="M91.32,48.21h-.94c-.06,0-.11-.02-.1-.05l.02-.09s.06-.05,.12-.05h.93c.06,0,.11,.02,.11,.05v.09s-.06,.05-.12,.05Z"/><path class="cls-48" d="M92.84,48.21h-.94c-.06,0-.11-.02-.11-.05v-.09s.05-.05,.11-.05h.93c.06,0,.11,.02,.11,.05v.09s-.03,.05-.09,.05Z"/><path class="cls-48" d="M94.36,48.21h-.94c-.06,0-.11-.02-.12-.05v-.09s.03-.05,.09-.05h.93c.06,0,.11,.02,.12,.05l.02,.09s-.04,.05-.1,.05Z"/><path class="cls-48" d="M95.88,48.21h-.94c-.06,0-.12-.02-.13-.05l-.03-.09s.03-.05,.09-.05h.93c.06,0,.12,.02,.13,.05l.04,.09s-.03,.05-.09,.05Z"/><path class="cls-48" d="M97.4,48.21h-.94c-.06,0-.12-.02-.13-.05l-.04-.09s.03-.05,.09-.05h.93c.06,0,.12,.02,.14,.05l.05,.09s-.02,.05-.08,.05Z"/><path class="cls-48" d="M98.92,48.21h-.94c-.06,0-.12-.02-.14-.05l-.06-.09s.02-.05,.08-.05h.93c.06,0,.12,.02,.15,.05l.07,.09s-.01,.05-.07,.05Z"/><path class="cls-48" d="M100.79,48.21h-1.29c-.06,0-.13-.02-.15-.05l-.07-.09s0-.05,.07-.05h1.27c.06,0,.13,.02,.15,.05l.09,.09s0,.05-.06,.05Z"/><path class="cls-48" d="M102.66,48.21h-1.3c-.06,0-.13-.02-.16-.05l-.09-.09s0-.05,.06-.05h1.28c.06,0,.13,.02,.16,.05l.1,.09s0,.05-.05,.05Z"/><path class="cls-48" d="M80.32,49.93h-1.13c-.07,0-.1-.03-.05-.07l.42-.34s.13-.06,.2-.06h1.08c.07,0,.1,.03,.06,.06l-.37,.34s-.13,.07-.2,.07Z"/><path class="cls-48" d="M82.14,49.93h-1.13c-.07,0-.1-.03-.06-.07l.36-.34s.12-.06,.19-.06h1.08c.07,0,.1,.03,.07,.06l-.31,.34s-.12,.07-.19,.07Z"/><path class="cls-48" d="M83.95,49.93h-1.13c-.07,0-.11-.03-.07-.07l.3-.34s.11-.06,.18-.06h1.08c.07,0,.11,.03,.08,.06l-.25,.34s-.11,.07-.18,.07Z"/><path class="cls-48" d="M85.76,49.93h-1.13c-.07,0-.11-.03-.09-.07l.24-.34s.1-.06,.17-.06h1.08c.07,0,.11,.03,.09,.06l-.19,.34s-.1,.07-.17,.07Z"/><path class="cls-48" d="M92.97,49.93h-6.47c-.1,0-.17-.02-.16-.05l.2-.38s.1-.05,.2-.05h6.18c.1,0,.18,.02,.18,.05l.05,.38s-.08,.05-.18,.05Z"/><path class="cls-48" d="M94.83,49.93h-1.13c-.07,0-.14-.03-.14-.07l-.06-.34s.05-.06,.12-.06h1.08c.07,0,.13,.03,.14,.06l.1,.34s-.04,.07-.11,.07Z"/><path class="cls-48" d="M96.65,49.93h-1.13c-.07,0-.14-.03-.15-.07l-.11-.34s.04-.06,.11-.06h1.08c.07,0,.14,.03,.15,.06l.16,.34s-.03,.07-.1,.07Z"/><path class="cls-48" d="M98.46,49.93h-1.13c-.07,0-.15-.03-.17-.07l-.17-.34s.03-.06,.1-.06h1.08c.07,0,.14,.03,.17,.06l.22,.34s-.02,.07-.09,.07Z"/><path class="cls-48" d="M102.6,49.93h-1.27c-.07,0-.16-.03-.19-.07l-.05-.05s0-.07,.07-.07h1.24c.07,0,.16,.03,.2,.07l.06,.05s0,.07-.06,.07Z"/><path class="cls-48" d="M104.6,49.93h-1.27c-.07,0-.16-.03-.2-.07l-.06-.05s-.01-.07,.06-.07h1.24c.07,0,.17,.03,.21,.07l.07,.05s.02,.07-.05,.07Z"/><path class="cls-48" d="M100.61,49.93h-1.27c-.07,0-.15-.03-.18-.07l-.04-.05s.01-.07,.08-.07h1.24c.07,0,.15,.03,.18,.07l.05,.05s0,.07-.08,.07Z"/><path class="cls-48" d="M102.3,49.64h-1.23c-.07,0-.15-.03-.18-.06l-.05-.05s0-.06,.07-.06h1.21c.07,0,.15,.03,.19,.06l.05,.05s0,.06-.06,.06Z"/><path class="cls-48" d="M81.81,48.57h-.98c-.06,0-.09-.02-.05-.05l.22-.18s.11-.05,.17-.05h.95c.06,0,.09,.02,.06,.05l-.19,.18s-.11,.05-.17,.05Z"/><path class="cls-48" d="M83.39,48.57h-.98c-.06,0-.09-.02-.06-.05l.19-.18s.1-.05,.16-.05h.95c.06,0,.09,.02,.07,.05l-.16,.18s-.1,.05-.16,.05Z"/><path class="cls-48" d="M84.97,48.57h-.98c-.06,0-.1-.02-.07-.05l.15-.18s.09-.05,.15-.05h.95c.06,0,.1,.02,.08,.05l-.13,.18s-.09,.05-.15,.05Z"/><path class="cls-48" d="M86.55,48.57h-.98c-.06,0-.1-.02-.08-.05l.12-.18s.08-.05,.15-.05h.95c.06,0,.1,.02,.08,.05l-.1,.18s-.08,.05-.14,.05Z"/><path class="cls-48" d="M88.13,48.57h-.98c-.06,0-.1-.02-.09-.05l.09-.18s.08-.05,.14-.05h.95c.06,0,.1,.02,.09,.05l-.07,.18s-.07,.05-.14,.05Z"/><path class="cls-48" d="M89.71,48.57h-.98c-.06,0-.11-.02-.1-.05l.06-.18s.07-.05,.13-.05h.95c.06,0,.11,.02,.1,.05l-.04,.18s-.06,.05-.13,.05Z"/><path class="cls-48" d="M91.29,48.57h-.98c-.06,0-.11-.02-.11-.05l.03-.18s.06-.05,.12-.05h.95c.06,0,.11,.02,.11,.05v.18s-.06,.05-.13,.05Z"/><path class="cls-48" d="M92.87,48.57h-.98c-.06,0-.11-.02-.11-.05v-.18s.05-.05,.11-.05h.95c.06,0,.11,.02,.12,.05l.02,.18s-.05,.05-.11,.05Z"/><path class="cls-48" d="M94.45,48.57h-.98c-.06,0-.12-.02-.12-.05l-.03-.18s.04-.05,.1-.05h.95c.06,0,.12,.02,.13,.05l.05,.18s-.04,.05-.1,.05Z"/><path class="cls-48" d="M96.04,48.57h-.98c-.06,0-.12-.02-.13-.05l-.06-.18s.03-.05,.1-.05h.95c.06,0,.12,.02,.13,.05l.08,.18s-.03,.05-.09,.05Z"/><path class="cls-48" d="M97.62,48.57h-.98c-.06,0-.13-.02-.14-.05l-.09-.18s.03-.05,.09-.05h.95c.06,0,.13,.02,.14,.05l.11,.18s-.02,.05-.08,.05Z"/><path class="cls-48" d="M99.2,48.57h-.98c-.06,0-.13-.02-.15-.05l-.12-.18s.02-.05,.08-.05h.95c.06,0,.13,.02,.15,.05l.14,.18s-.01,.05-.07,.05Z"/><path class="cls-48" d="M101.14,48.57h-1.34c-.06,0-.13-.02-.16-.05l-.15-.18s0-.05,.07-.05h1.3c.06,0,.13,.02,.16,.05l.18,.18s0,.05-.06,.05Z"/><path class="cls-48" d="M103.09,48.57h-1.35c-.06,0-.14-.02-.17-.05l-.19-.18s0-.05,.06-.05h1.31c.06,0,.14,.02,.17,.05l.22,.18s.01,.05-.05,.05Z"/><path class="cls-48" d="M82.15,48.95h-1.74c-.09,0-.14-.02-.12-.04l.27-.22s.12-.04,.21-.04h1.68c.09,0,.14,.02,.12,.04l-.22,.22s-.11,.04-.2,.04Z"/><path class="cls-48" d="M84.64,48.95h-1.74c-.09,0-.15-.02-.13-.04l.21-.22s.11-.04,.2-.04h1.68c.09,0,.15,.02,.13,.04l-.16,.22s-.1,.04-.19,.04Z"/><path class="cls-48" d="M86.33,48.95h-1.02c-.07,0-.1-.02-.08-.06l.13-.19s.09-.05,.15-.05h.99c.06,0,.1,.02,.09,.05l-.11,.19s-.08,.06-.15,.06Z"/><path class="cls-48" d="M87.98,48.95h-1.02c-.07,0-.11-.02-.09-.06l.1-.19s.08-.05,.14-.05h.99c.06,0,.11,.02,.1,.05l-.08,.19s-.08,.06-.14,.06Z"/><path class="cls-48" d="M89.62,48.95h-1.02c-.07,0-.11-.02-.1-.06l.07-.19s.07-.05,.13-.05h.99c.06,0,.11,.02,.1,.05l-.04,.19s-.07,.06-.13,.06Z"/><path class="cls-48" d="M91.27,48.95h-1.02c-.07,0-.12-.02-.11-.06l.04-.19s.06-.05,.13-.05h.99c.06,0,.11,.02,.11,.05v.19s-.07,.06-.13,.06Z"/><path class="cls-48" d="M92.91,48.95h-1.02c-.07,0-.12-.02-.12-.06v-.19s.05-.05,.12-.05h.99c.06,0,.12,.02,.12,.05l.02,.19s-.05,.06-.11,.06Z"/><path class="cls-48" d="M94.56,48.95h-1.02c-.07,0-.12-.02-.13-.06l-.03-.19s.04-.05,.11-.05h.99c.06,0,.12,.02,.13,.05l.06,.19s-.04,.06-.1,.06Z"/><path class="cls-48" d="M96.21,48.95h-1.02c-.07,0-.13-.02-.14-.06l-.06-.19s.03-.05,.1-.05h.99c.06,0,.13,.02,.14,.05l.09,.19s-.03,.06-.09,.06Z"/><path class="cls-48" d="M97.85,48.95h-1.02c-.07,0-.13-.02-.15-.06l-.1-.19s.03-.05,.09-.05h.99c.06,0,.13,.02,.15,.05l.12,.19s-.02,.06-.08,.06Z"/><path class="cls-48" d="M99.5,48.95h-1.02c-.07,0-.14-.02-.16-.06l-.13-.19s.02-.05,.08-.05h.99c.06,0,.13,.02,.16,.05l.16,.19s0,.06-.08,.06Z"/><path class="cls-48" d="M101.11,48.95h-1.02c-.07,0-.14-.02-.17-.06l-.16-.19s0-.05,.07-.05h.99c.06,0,.14,.02,.17,.05l.19,.19s0,.06-.07,.06Z"/><path class="cls-48" d="M103.51,48.95h-1.71c-.09,0-.18-.02-.21-.04l-.23-.22s.03-.04,.12-.04h1.66c.09,0,.18,.02,.21,.04l.27,.22s-.02,.04-.12,.04Z"/><path class="cls-48" d="M82.66,49.36h-2.78c-.07,0-.09-.03-.05-.06l.25-.21s.12-.06,.19-.06h2.69c.07,0,.1,.03,.07,.06l-.19,.21s-.11,.06-.18,.06Z"/><path class="cls-48" d="M84.38,49.36h-1.07c-.07,0-.1-.03-.07-.06l.18-.21s.1-.06,.17-.06h1.03c.07,0,.1,.03,.08,.06l-.15,.21s-.1,.06-.17,.06Z"/><path class="cls-48" d="M86.09,49.36h-1.07c-.07,0-.11-.03-.08-.06l.15-.21s.09-.06,.16-.06h1.03c.07,0,.11,.03,.09,.06l-.12,.21s-.09,.06-.16,.06Z"/><path class="cls-48" d="M87.81,49.36h-1.07c-.07,0-.11-.03-.09-.06l.11-.21s.08-.06,.15-.06h1.03c.07,0,.11,.03,.1,.06l-.08,.21s-.08,.06-.15,.06Z"/><path class="cls-48" d="M89.53,49.36h-1.07c-.07,0-.12-.03-.1-.06l.07-.21s.07-.06,.14-.06h1.03c.07,0,.12,.03,.11,.06l-.05,.21s-.07,.06-.14,.06Z"/><path class="cls-48" d="M91.24,49.36h-1.07c-.07,0-.12-.03-.11-.06l.04-.21s.06-.06,.13-.06h1.03c.07,0,.12,.03,.12,.06v.21s-.07,.06-.14,.06Z"/><path class="cls-48" d="M92.96,49.36h-1.07c-.07,0-.12-.03-.12-.06v-.21s.06-.06,.12-.06h1.03c.07,0,.12,.03,.13,.06l.03,.21s-.05,.06-.12,.06Z"/><path class="cls-48" d="M94.68,49.36h-1.07c-.07,0-.13-.03-.13-.06l-.03-.21s.05-.06,.11-.06h1.03c.07,0,.13,.03,.14,.06l.06,.21s-.04,.06-.11,.06Z"/><path class="cls-48" d="M96.39,49.36h-1.07c-.07,0-.13-.03-.14-.06l-.07-.21s.04-.06,.1-.06h1.03c.07,0,.13,.03,.15,.06l.1,.21s-.03,.06-.1,.06Z"/><path class="cls-48" d="M98.11,49.36h-1.07c-.07,0-.14-.03-.16-.06l-.11-.21s.03-.06,.09-.06h1.03c.07,0,.14,.03,.16,.06l.13,.21s-.02,.06-.09,.06Z"/><path class="cls-48" d="M99.83,49.36h-1.07c-.07,0-.14-.03-.17-.06l-.14-.21s.02-.06,.08-.06h1.03c.07,0,.14,.03,.17,.06l.17,.21s0,.06-.08,.06Z"/><path class="cls-48" d="M104.06,49.36h-3.58c-.07,0-.15-.03-.18-.06l-.18-.21s0-.06,.07-.06h3.46c.07,0,.15,.03,.19,.06l.26,.21s.02,.06-.05,.06Z"/></g></g></g><g><g><rect class="cls-25" x="81.93" y="33.94" width="7.09" height=".63"/><polygon class="cls-7" points="85.91 37.36 81.97 37.39 81.97 36.91 85.91 36.88 85.91 37.36"/><rect class="cls-33" x="81.95" y="35.72" width="8.81" height=".33"/><rect class="cls-33" x="81.95" y="36.21" width="7.37" height=".33"/><polygon class="cls-25" points="90.77 35.38 82.41 35.37 82.41 34.81 90.77 34.82 90.77 35.38"/><polygon class="cls-35" points="85.03 35.37 81.96 35.37 81.96 34.81 85.03 34.81 85.03 35.37"/><text class="cls-28" transform="translate(81.9 32.48) scale(.88 1)"><tspan class="cls-49" x="0" y="0">L</tspan><tspan class="cls-22" x=".34" y="0">o</tspan><tspan class="cls-24" x=".75" y="0">r</tspan><tspan class="cls-22" x=".99" y="0">em </tspan><tspan class="cls-10" x="2.14" y="0">I</tspan><tspan x="2.33" y="0">psum Review</tspan></text><g><polygon class="cls-45" points="82.22 33.45 82.02 33.58 82.06 33.32 81.9 33.15 82.12 33.11 82.22 32.88 82.32 33.11 82.54 33.15 82.38 33.32 82.42 33.58 82.22 33.45"/><polygon class="cls-52" points="82.99 33.45 82.78 33.58 82.83 33.32 82.66 33.15 82.89 33.11 82.99 32.88 83.08 33.11 83.31 33.15 83.14 33.32 83.19 33.58 82.99 33.45"/><polygon class="cls-37" points="83.75 33.45 83.55 33.58 83.59 33.32 83.43 33.15 83.65 33.11 83.75 32.88 83.85 33.11 84.07 33.15 83.91 33.32 83.95 33.58 83.75 33.45"/><polygon class="cls-12" points="84.52 33.45 84.32 33.58 84.36 33.32 84.19 33.15 84.42 33.11 84.52 32.88 84.61 33.11 84.84 33.15 84.67 33.32 84.72 33.58 84.52 33.45"/><polygon class="cls-42" points="85.28 33.45 85.08 33.58 85.12 33.32 84.96 33.15 85.18 33.11 85.28 32.88 85.38 33.11 85.61 33.15 85.44 33.32 85.48 33.58 85.28 33.45"/></g></g><g><rect class="cls-25" x="81.92" y="26.72" width="6.5" height=".63"/><polygon class="cls-7" points="85.91 30.14 81.97 30.16 81.97 29.69 85.91 29.66 85.91 30.14"/><rect class="cls-33" x="81.95" y="28.5" width="8.81" height=".33"/><rect class="cls-33" x="81.95" y="28.99" width="5.96" height=".33"/><polygon class="cls-25" points="90.76 28.16 82.41 28.15 82.41 27.59 90.76 27.6 90.76 28.16"/><polygon class="cls-35" points="84.17 28.15 81.96 28.15 81.96 27.59 84.17 27.59 84.17 28.15"/><text class="cls-28" transform="translate(81.9 25.25) scale(.88 1)"><tspan class="cls-49" x="0" y="0">L</tspan><tspan class="cls-22" x=".34" y="0">o</tspan><tspan class="cls-24" x=".75" y="0">r</tspan><tspan class="cls-22" x=".99" y="0">em </tspan><tspan class="cls-10" x="2.14" y="0">I</tspan><tspan x="2.33" y="0">psum Review</tspan></text><g><polygon class="cls-53" points="82.22 26.23 82.02 26.36 82.06 26.1 81.9 25.92 82.12 25.89 82.22 25.65 82.32 25.89 82.54 25.92 82.38 26.1 82.42 26.36 82.22 26.23"/><polygon class="cls-44" points="82.99 26.23 82.78 26.36 82.83 26.1 82.66 25.92 82.89 25.89 82.99 25.65 83.08 25.89 83.31 25.92 83.14 26.1 83.19 26.36 82.99 26.23"/><polygon class="cls-31" points="83.75 26.23 83.55 26.36 83.59 26.1 83.43 25.92 83.65 25.89 83.75 25.65 83.85 25.89 84.07 25.92 83.91 26.1 83.95 26.36 83.75 26.23"/><polygon class="cls-23" points="84.52 26.23 84.32 26.36 84.36 26.1 84.19 25.92 84.42 25.89 84.52 25.65 84.61 25.89 84.84 25.92 84.67 26.1 84.72 26.36 84.52 26.23"/><polygon class="cls-55" points="85.28 26.23 85.08 26.36 85.12 26.1 84.96 25.92 85.18 25.89 85.28 25.65 85.38 25.89 85.61 25.92 85.44 26.1 85.48 26.36 85.28 26.23"/></g></g></g><g><path class="cls-46" d="M92.44,24.48c.18,.94,.68,1.47,.96,1.27,.51-.36,.84-4.57,.24-5.67s-1.93,.94-1.93,.94l.74,3.46Z"/><path class="cls-17" d="M94.23,39.13c.12-4.09,.46-7.08,.46-7.08l4.77,.4,5.29-.57s.31,2.98,.44,7.25h-10.96Z"/><path class="cls-1" d="M101.18,13.4c-.28-.52-.34-1.65-.34-1.65h-2.31s-.17,1.65-.5,1.97c-.38,.36-1.38,1.05-2.14,1.43,.12,1.26,.26,2.39,.41,3.64h6.25c.12-1.35,.25-2.69,.39-4.04-.6-.31-1.47-.83-1.75-1.35Z"/><path class="cls-14" d="M98.31,13.15s.04,.04,.05,.06l.04,.03c.26,.19,.52,.37,.81,.52,.02,0,.26,.11,.3,.13,.2,.08,.4,.15,.61,.21,.61,.17,1.26,.19,1.93,.13-.37-.25-.72-.54-.87-.83-.28-.52-.34-1.65-.34-1.65h-2.31s-.08,.79-.24,1.38l.02,.02Z"/><path class="cls-54" d="M94.5,15.97c.6-.49,2.91-1.83,2.91-1.83,0,0,.1,2.13,2.18,2.13,2.38,0,2.46-2.03,2.46-2.03l2.78,1.46s-.07,5.11,.18,6.85c.25,1.74,.54,13.27,.4,13.59-.29,.66-3.01,.67-5.48,.67-3.47,0-5.55-.57-5.55-.57,0,0,.04-7.85-.02-10.9,0-.44,.13-9.36,.13-9.36Z"/><path class="cls-36" d="M104.83,16.03c-.19,.65-.36,1.3-.49,1.97-.1,.51-.18,1.03-.26,1.54-.03,.22-.04,.28-.03,.19-.01,.13-.03,.26-.04,.39-.02,.22-.04,.45-.06,.67-.08,1.13-.1,2.27-.05,3.4,.02,.53,.05,1.06,.1,1.59,.02,.26,.05,.53,.07,.79,.01,.11,.02,.22,.04,.34-.02-.16-.01-.12,.02,.13,.29,2.05,.71,4.07,1.33,6.03-.03-3.11-.24-9.22-.43-10.53-.21-1.47-.2-5.34-.19-6.51Z"/><path class="cls-36" d="M94.36,27.29c.26-.81,.84-4.19,.78-5.08-.24-1.5-.48-3.01-.67-4.52-.04,2.62-.11,7.32-.1,7.63,.01,.57,0,1.24-.01,1.97Z"/><path class="cls-1" d="M97.34,9.33s.07-1.02-.62-1.01c-.7,.01-.46,1.67,.13,2.34,.21,.24,.54,.12,.61-.06,.12-.3-.12-1.27-.12-1.27Z"/><path class="cls-14" d="M96.88,8.94c-.23-.3-.33-.06-.28,.24s.12,.4,.18,.78c.05,.38,.3,.5,.35,.38,.05-.12-.25-1.4-.25-1.4Z"/><path class="cls-1" d="M101.64,9.33s-.07-1.02,.62-1.01c.7,.01,.46,1.67-.13,2.34-.21,.24-.54,.12-.61-.06-.12-.3,.12-1.27,.12-1.27Z"/><path class="cls-14" d="M102.1,8.94c.23-.3,.33-.06,.28,.24s-.12,.4-.18,.78c-.05,.38-.3,.5-.35,.38-.05-.12,.25-1.4,.25-1.4Z"/><path class="cls-1" d="M102.46,6.43c-.02,.43-.11,1.25-.21,2.09-.16,1.29-.36,2.67-.44,2.93-.14,.43-1.04,1.52-1.42,1.77-.37,.26-.87,.15-.87,.15,0,0-.44,.05-.81-.21-.37-.26-1.33-1.29-1.47-1.72-.09-.27-.29-1.69-.45-3.01-.1-.82-.18-1.6-.2-2.02-.06-1.09,1.1-2.68,2.94-2.68s3,1.59,2.94,2.68Z"/><ellipse class="cls-16" cx="100.92" cy="9.78" rx=".33" ry=".25"/><path class="cls-16" d="M98.75,9.78c0,.14-.15,.25-.33,.25s-.33-.11-.33-.25,.15-.25,.33-.25,.33,.11,.33,.25Z"/><path class="cls-8" d="M102.46,6.43c-.02,.43-.11,1.25-.21,2.09l-.18,.17s.1-.77,0-1.2c-.1-.44-.48-1.1-.48-1.1,0,0,.13-.23,.13-.62,0-.39-.75-.64-1.18-.55-.35,.08-1.58,.08-1.93,0-.42-.09-1.18,.16-1.18,.55,0,.39,.13,.62,.13,.62,0,0-.37,.66-.48,1.1-.1,.44,0,1.2,0,1.2l-.19-.17s-.05-.01-.12-.08c-.1-.82-.18-1.6-.2-2.02-.06-1.09,1.1-2.68,2.94-2.68s3,1.59,2.94,2.68Z"/><path class="cls-26" d="M102.22,8.27c-.01-.13-.49-.17-.82-.17s-1.24,0-1.44,.1c-.2,.1-.2,.18-.3,.18h-.04c-.1,0-.1-.08-.3-.18-.2-.1-1.1-.1-1.44-.1s-.81,.04-.82,.17c0,.07,0,.17,.01,.25,.01,.07,.18,.11,.21,.13,.06,.04,.03,.05,.25,.56,.16,.38,.51,.56,1.24,.44,.56-.08,.56-.56,.64-.77,.08-.21,.13-.24,.21-.24h.04c.09,0,.14,.03,.21,.24,.08,.21,.08,.68,.64,.77,.73,.11,1.08-.06,1.24-.44,.22-.52,.19-.52,.25-.56,.03-.02,.2-.06,.21-.13,.02-.08,.02-.18,.01-.25Zm-3.03,.8c-.06,.27-.15,.5-.82,.5-.47,0-.67-.16-.8-.54-.11-.33-.08-.58-.01-.66,.07-.08,.63-.06,1.06-.04,.42,.02,.56,.03,.61,.19,.02,.06,.02,.28-.04,.55Zm2.49-.04c-.13,.38-.33,.54-.8,.54-.67,0-.76-.23-.82-.5-.06-.27-.06-.49-.04-.55,.04-.16,.19-.17,.61-.19,.42-.02,.99-.04,1.06,.04,.07,.08,.1,.33-.01,.66Z"/><path class="cls-14" d="M92,23.2c.24,.58-.01,2.16,.54,2.29,.73,.18,2.29-3.58,2.29-3.58l-2.21-3.31-1.57,2.29c.3,.78,.63,1.54,.95,2.31Z"/><path class="cls-54" d="M94.5,15.97c-.94,.52-1.16,1.27-1.67,2.06-.64,1-1.06,1.75-1.06,1.75,0,0,1.09,1.16,1.59,3.34,.38,1.65,.03,2.63,.03,2.63l1.62-2.04s.75-2.18,.48-4.37c-.26-2.19-1-3.38-1-3.38Z"/><g><path class="cls-1" d="M90.91,17.18c.05-.39,.62-1.76,.65-2.1,.03-.34,.05-1.3-.16-1.59-.13-.18-.72-.98-.72-.98l-3.05-.1c-.25,1.01-.26,1.25-.04,2.12,.11,.46,.67,1.36,1.07,1.8,.4,.44,.74,.95,.74,.95l1.51-.11Z"/><path class="cls-14" d="M91.4,13.48c-.13-.18-.72-.98-.72-.98l-1.55-.05c0,.07,0,.15-.01,.22-.07,1.1-.27,2.1-.73,3.08-.02,.05-.05,.09-.07,.14,.09,.12,.17,.24,.26,.34,.1,.05,.26,.18,.15,.14,.14,.06,.28,.1,.41,.14,.07,.02,.44,.07,.37,.07,.15,.01,.3,.02,.45,.03,.38,0,.75-.01,1.12-.05,.19-.55,.45-1.25,.48-1.48,.03-.34,.05-1.3-.16-1.59Z"/><path class="cls-1" d="M92.25,25.67c.66-.17,1.06-.75,1.04-1.85,0-.54-.32-1.18-1.15-3.22-.45-1.11-1.31-3.65-1.31-3.65l-1.65,.02c.28,1.26,.65,4.57,1.26,6.72,.41,1.45,1.52,2.07,1.82,1.99Z"/><g><path class="cls-15" d="M88.29,16.28l-1.07-5.92c-.04-.21,.08-.42,.27-.46l2.39-.56c.19-.04,.37,.09,.4,.3l1.07,5.92c.04,.21-.08,.42-.27,.46l-2.39,.56c-.19,.04-.37-.09-.4-.3Z"/><g><g class="cls-30"><path class="cls-56" d="M88.41,16.25l-1.07-5.92c-.04-.21,.08-.42,.27-.46l2.39-.56c.19-.04,.37,.09,.4,.3l1.07,5.92c.04,.21-.08,.42-.27,.46l-2.39,.56c-.19,.04-.37-.09-.4-.3Z"/></g><path class="cls-11" d="M90.06,15.95c.01,.08-.03,.15-.1,.17-.07,.02-.14-.03-.15-.11-.01-.08,.03-.15,.1-.17,.07-.02,.14,.03,.15,.11Z"/><path class="cls-18" d="M91.23,15.37l-2.64,.62c-.07,.02-.14-.04-.16-.12l-1.03-5.69c-.01-.08,.03-.16,.1-.18l2.64-.62c.07-.02,.14,.04,.16,.12l1.03,5.69c.01,.08-.03,.16-.1,.18Z"/><path class="cls-19" d="M90.6,11.14l-.31-1.72s-.04-.06-.07-.05l-2.79,.65s-.05,.04-.04,.08l.78,4.31,2.44-3.27Z"/><path class="cls-34" d="M89.21,9.87l-.67,.16c-.14,.03-.27-.07-.3-.22h0l1.16-.27h0c.03,.16-.06,.31-.19,.34Z"/></g></g><path class="cls-1" d="M91.17,13.17c-.16-.14-.27-.24-.32-.06s.02,.49,.08,.7c.06,.2,.45,.98,.45,.98v-1.12s-.14-.43-.22-.5Z"/><path class="cls-1" d="M87.59,12.54c.03-.27,.15-.77,.29-.79,.14-.01,.17,.36,.15,.54,0,0,.3,.14,.25,.52-.05,.39-.12,.49-.12,.49,0,0,.18-.01,.17,.25s-.14,.53-.14,.53c0,0,.12,.06-.01,.48-.14,.42-.1,.54-.1,.54,0,0-.28-.73-.37-1.14-.09-.41-.12-1.42-.12-1.42Z"/></g><path class="cls-43" d="M100.29,11.04s-.07,.34-.26,.6c-.11,.16-.27,.29-.48,.29-.16,0-.28-.08-.38-.19-.24-.26-.33-.7-.33-.7,.81,.33,1.45,0,1.45,0Z"/><path class="cls-32" d="M100.03,11.64c-.11,.16-.27,.29-.48,.29-.16,0-.28-.08-.38-.19,.16-.17,.45-.21,.65-.18,.07,.01,.14,.04,.21,.08Z"/><path class="cls-46" d="M102.66,23.98c0,.72,.82,1.25,1.43,1.94,.61,.69,1.16,.97,1.35,.6,.19-.38,.32-2.09-.39-2.76-.71-.66-2.39,.22-2.39,.22Z"/><path class="cls-1" d="M103.07,23.13l-.72,2.14s-.9-1.2-1.96-2.26c-1.06-1.06-1.31-1.49-1.31-1.49,0,0,.06-.25,.05-.83-.02-.58-.15-1.2-.11-1.45,.05-.25,.15-1.02,.32-1.25,.17-.22-.29-.36-.5-.25-.21,.12-.43,.91-.52,1.15s-.83-.3-1.15-.67c-.31-.37-1.74-1.44-2.01-1.68s-.48-.14-.55,.11,.37,.6,.71,.93c.34,.33,.98,.89,.98,.89,0,0-.29-.05-.39,.27-.1,.31,.05,.54,.05,.54,0,0-.27,.08-.35,.37-.08,.29,.1,.46,.1,.46,0,0-.2-.03-.21,.36,0,.38,.31,.27,.67,.89,.2,.34,.97,.96,1.2,1.09,.18,.1,1.53,2.18,2.21,3.52,1.05,2.09,2,3.35,2.87,3.6,.87,.26,1.43-.2,1.98-1.56,.77-1.91,1.72-4.94,1.72-4.94l-3.09,.05Z"/><path class="cls-14" d="M104.59,27.64c.74-1.9,1.57-4.57,1.57-4.57l-3.09,.05-.41,1.21c1.03,.75,1.52,2,1.93,3.3Z"/><path class="cls-54" d="M102.66,23.98c1.9,.56,2.78,2.53,2.78,2.53,0,0,.95-2.23,1.24-4.17,.29-1.94,.6-3.8-.28-5.24-.5-.82-1.57-1.41-1.57-1.41,0,0-.21,.4-.5,1.19s-.46,2.38-.82,3.95c-.36,1.58-.85,3.14-.85,3.14Z"/></g><g><g class="cls-13"><rect class="cls-27" x="76.97" y="26.5" width="5.19" height="2.38" rx=".8" ry=".8" transform="translate(107.25 -51.87) rotate(90)"/></g><path class="cls-9" d="M79.64,30.05c0,.06-.04,.11-.1,.11s-.1-.05-.1-.11,.04-.11,.1-.11,.1,.05,.1,.11Z"/><path class="cls-5" d="M78.86,25.17h1.4c.24,0,.43,.19,.43,.43v3.79c0,.24-.19,.43-.43,.43h-1.4c-.24,0-.43-.19-.43-.43v-3.79c0-.24,.19-.43,.43-.43Z"/><path class="cls-20" d="M80.69,26.56v-1.34s-.02-.05-.04-.05h-2.17s-.04,.02-.04,.05v3.35l2.26-2.01Z"/><path class="cls-27" d="M79.11,25.15h.9v.07c0,.08-.07,.15-.15,.15h-.6c-.08,0-.15-.07-.15-.15v-.07h0Z"/></g><g><g class="cls-41"><rect class="cls-27" x="76.97" y="33.55" width="5.19" height="2.38" rx=".8" ry=".8" transform="translate(114.3 -44.83) rotate(90)"/></g><path class="cls-9" d="M79.64,37.1c0,.06-.04,.11-.1,.11s-.1-.05-.1-.11,.04-.11,.1-.11,.1,.05,.1,.11Z"/><path class="cls-50" d="M78.86,32.22h1.4c.24,0,.43,.19,.43,.43v3.79c0,.24-.19,.43-.43,.43h-1.4c-.24,0-.43-.19-.43-.43v-3.79c0-.24,.19-.43,.43-.43Z"/><path class="cls-21" d="M80.69,33.61v-1.34s-.02-.05-.04-.05h-2.17s-.04,.02-.04,.05v3.35l2.26-2.01Z"/><path class="cls-27" d="M79.11,32.2h.9v.07c0,.08-.07,.15-.15,.15h-.6c-.08,0-.15-.07-.15-.15v-.07h0Z"/></g><text class="cls-29" transform="translate(78.24 23.34) scale(.88 1)"><tspan x="0" y="0">B</tspan><tspan class="cls-40" x="1.23" y="0">L</tspan><tspan x="2.21" y="0">OGGER R</tspan><tspan class="cls-51" x="10.76" y="0">E</tspan><tspan x="11.9" y="0">VI</tspan><tspan class="cls-51" x="13.71" y="0">E</tspan><tspan x="14.84" y="0">W</tspan></text></g><g><path class="cls-4" d="M16.59,20.09c.06,.1,.14,.24,.23,.41s.19,.37,.3,.59,.22,.46,.34,.71,.24,.52,.37,.79,.24,.54,.36,.81,.23,.53,.34,.78c.09,.23,.17,.44,.24,.62s.13,.37,.18,.55h.03c.17-.34,.34-.69,.52-1.04s.35-.7,.53-1.04,.34-.67,.51-.98,.33-.61,.48-.89,.29-.53,.42-.76,.25-.42,.35-.58c.07-.11,.13-.19,.2-.25s.14-.1,.22-.14,.16-.05,.25-.06,.18-.01,.28-.01c.05,0,.12,0,.18,.01s.14,.02,.21,.04,.14,.04,.21,.06,.13,.05,.18,.09c-.53,.61-1,1.19-1.41,1.74s-.76,1.05-1.07,1.51-.56,.87-.76,1.24-.37,.67-.5,.91c-.09,.16-.16,.32-.22,.47s-.11,.31-.15,.49-.08,.37-.1,.59-.05,.48-.06,.78c-.01,.2-.02,.4-.03,.6s-.02,.42-.03,.65-.02,.47-.03,.72-.02,.53-.03,.83l-1.29,.14h-.1c.03-.42,.05-.83,.07-1.23s.04-.77,.05-1.1,.02-.62,.03-.87,0-.43,0-.54c0-.2-.02-.4-.05-.61s-.09-.43-.17-.67c-.09-.26-.19-.53-.31-.82s-.25-.58-.38-.87-.27-.58-.41-.87-.28-.55-.41-.8-.25-.48-.36-.68-.21-.37-.28-.5c-.07-.11-.13-.21-.21-.29s-.15-.14-.24-.19-.19-.08-.3-.1-.24-.03-.38-.03c-.13,0-.27,0-.41,.02s-.3,.03-.46,.05l-.06-.41c.55-.12,1-.21,1.36-.27s.65-.1,.88-.1,.41,.04,.55,.11,.25,.2,.35,.37Z"/><path class="cls-4" d="M26.84,25.56c0-.25-.05-.46-.14-.64s-.22-.33-.37-.44-.32-.2-.52-.26-.38-.08-.58-.08c-.26,0-.47,.02-.65,.07s-.32,.11-.43,.19-.19,.18-.24,.29-.07,.23-.07,.36c0,.15,.03,.3,.1,.45s.16,.3,.28,.44l-.02,.05c-.21,.09-.41,.13-.62,.13-.12,0-.24-.02-.34-.05s-.2-.08-.28-.14-.14-.14-.18-.23-.07-.19-.07-.3c0-.18,.05-.36,.15-.52s.24-.31,.41-.44,.37-.25,.59-.36,.46-.19,.7-.27,.48-.13,.72-.17,.46-.06,.67-.06c.38,0,.71,.04,.98,.13s.49,.21,.66,.38,.29,.37,.37,.6,.12,.5,.12,.8c0,.2,0,.43-.03,.68s-.04,.5-.07,.77-.05,.55-.07,.83-.03,.57-.03,.85c0,.45,.1,.78,.29,1.01s.45,.34,.76,.34c.28,0,.59-.09,.93-.27l.16,.2c-.24,.21-.51,.37-.79,.47s-.59,.16-.9,.16c-.24,0-.45-.03-.65-.1s-.37-.17-.52-.3-.26-.3-.34-.51-.12-.44-.12-.71c0-.08,0-.16,0-.24s.02-.17,.04-.26h-.03c-.16,.27-.34,.53-.54,.79s-.43,.49-.67,.69-.51,.37-.78,.49-.57,.19-.87,.19c-.25,0-.48-.04-.68-.11s-.38-.18-.53-.31-.26-.28-.34-.46-.12-.37-.12-.58c0-.27,.06-.52,.18-.74s.28-.42,.49-.6,.46-.33,.75-.46,.6-.24,.95-.32,.7-.15,1.08-.19,.77-.06,1.16-.06c.03-.2,.05-.38,.06-.57s.02-.38,.02-.61Zm-3.34,3.2c0,.12,.02,.24,.05,.35s.08,.21,.15,.29,.15,.15,.26,.2,.23,.07,.37,.07c.16,0,.33-.03,.51-.1s.34-.16,.51-.27,.33-.25,.48-.41,.29-.33,.42-.52,.23-.39,.31-.6,.13-.42,.16-.64c-.27,0-.53,.02-.8,.04s-.52,.06-.75,.11-.46,.11-.66,.2-.38,.18-.52,.3-.26,.26-.34,.42-.12,.35-.12,.57Z"/><path class="cls-4" d="M31.05,28.66c.03,.24,.1,.44,.22,.61s.27,.31,.45,.42,.37,.19,.59,.24,.43,.08,.64,.08c.2,0,.39-.02,.58-.07s.35-.11,.49-.2,.25-.19,.34-.32c.08-.13,.13-.27,.13-.43s-.05-.31-.14-.43-.21-.24-.36-.34-.33-.2-.53-.28c-.2-.09-.41-.18-.63-.27-.19-.08-.38-.16-.58-.24s-.38-.17-.56-.26-.35-.19-.51-.3-.3-.23-.41-.36-.21-.28-.28-.44-.1-.34-.1-.54c0-.21,.04-.41,.13-.59s.21-.34,.36-.49,.32-.27,.52-.38,.41-.2,.63-.27,.46-.13,.69-.16,.47-.05,.69-.05c.29,0,.56,.03,.82,.08,.26,.05,.48,.13,.68,.24s.35,.23,.46,.38c.11,.15,.17,.32,.17,.5,0,.07-.01,.15-.04,.23s-.08,.16-.15,.24-.16,.13-.27,.18-.25,.08-.41,.08c-.15,0-.31-.02-.48-.06l-.02-.05c.05-.1,.09-.19,.11-.27s.03-.16,.03-.23c0-.14-.05-.26-.13-.36-.08-.1-.18-.18-.31-.24s-.26-.11-.41-.14c-.15-.03-.3-.04-.44-.04-.26,0-.49,.03-.69,.09s-.37,.14-.51,.24-.25,.21-.32,.33-.11,.25-.11,.39c0,.17,.05,.32,.16,.46s.24,.26,.42,.37,.37,.22,.6,.32,.46,.2,.71,.3c.28,.11,.55,.23,.82,.35s.51,.26,.73,.41,.39,.33,.52,.52,.2,.43,.2,.7c0,.32-.08,.6-.25,.85-.17,.25-.39,.46-.66,.63s-.59,.3-.95,.39c-.36,.09-.73,.13-1.11,.13-.19,0-.39-.01-.59-.04s-.4-.06-.59-.11-.37-.11-.55-.18-.32-.16-.45-.25-.23-.2-.3-.32-.11-.24-.11-.38c0-.12,.03-.22,.09-.31s.14-.15,.24-.2,.21-.09,.33-.12,.25-.04,.37-.04l.04,.03Z"/><path class="cls-4" d="M36.65,22.39h-.54c-.01-.39-.02-.72-.02-1.01s.02-.56,.05-.78,.1-.39,.2-.53c.1-.14,.25-.24,.45-.31s.46-.1,.79-.1c.21,0,.44,0,.71,.01s.55,.02,.85,.03,.6,.02,.91,.03,.62,.01,.91,.01c.49,0,.93,0,1.3,0s.71,0,1,0,.55,0,.77-.01,.42-.02,.6-.03,.35-.03,.51-.04c.16-.02,.32-.04,.48-.06,.06,.15,.09,.27,.09,.37,0,.2-.1,.36-.3,.47-.2,.11-.5,.16-.89,.16-.37,0-.81-.02-1.32-.06-.51-.04-1.08-.08-1.71-.11-.01,.46-.03,.95-.04,1.47-.02,.52-.03,1.06-.05,1.62s-.04,1.13-.06,1.71c-.02,.58-.04,1.16-.06,1.75s-.04,1.16-.06,1.73-.04,1.12-.06,1.66l-1.29,.14h-.1c.03-.6,.06-1.17,.08-1.72s.05-1.08,.07-1.6,.04-1.05,.06-1.57,.03-1.06,.04-1.61,.02-1.13,.03-1.73,.01-1.23,.01-1.91c-.21,0-.42-.01-.63-.02s-.43,0-.65,0-.43,0-.62,0-.37,.03-.53,.07-.3,.1-.43,.17-.23,.19-.32,.34-.15,.33-.2,.55c-.05,.22-.07,.5-.07,.82v.11Z"/><path class="cls-4" d="M49.71,28.9s.05,.02,.09,.04c.03,.02,.07,.04,.09,.06s.05,.04,.08,.07,.03,.05,.03,.07c0,.01,0,.02-.02,.04-.2,.24-.42,.45-.65,.63-.24,.18-.48,.33-.73,.45-.25,.12-.51,.21-.77,.27s-.52,.09-.77,.09c-.43,0-.83-.08-1.19-.23s-.67-.36-.93-.62-.47-.57-.61-.93c-.15-.36-.22-.74-.22-1.14,0-.33,.04-.66,.13-1s.21-.65,.37-.95,.36-.58,.59-.84,.49-.48,.79-.68,.62-.34,.97-.45c.35-.11,.73-.16,1.14-.16,.27,0,.52,.03,.77,.09s.45,.15,.64,.27c.18,.12,.33,.26,.44,.43s.16,.36,.16,.58c0,.32-.12,.59-.36,.83-.24,.24-.57,.44-1,.6s-.92,.3-1.5,.4-1.19,.18-1.86,.23v.08c0,.4,.06,.76,.18,1.09s.28,.61,.49,.85,.45,.42,.73,.55,.58,.2,.9,.2,.66-.07,1-.21c.34-.14,.69-.36,1.04-.67Zm-1.02-3.74c0-.14-.03-.28-.09-.4s-.13-.23-.23-.32c-.1-.09-.22-.16-.36-.22s-.29-.08-.45-.08c-.24,0-.45,.04-.64,.11s-.36,.17-.52,.29-.29,.27-.4,.43-.21,.34-.3,.52c-.08,.18-.15,.37-.2,.56s-.09,.38-.11,.56c.51-.03,.98-.08,1.38-.16,.41-.08,.75-.17,1.03-.29s.5-.26,.64-.43,.22-.36,.22-.57Z"/><path class="cls-4" d="M55.57,25.56c.1-.17,.15-.34,.15-.52,0-.12-.03-.24-.07-.34-.05-.11-.12-.2-.22-.28s-.22-.15-.37-.2c-.15-.05-.32-.07-.51-.07-.28,0-.54,.04-.76,.13s-.42,.2-.59,.35c-.17,.15-.32,.32-.44,.52s-.22,.41-.3,.63c-.08,.22-.14,.45-.17,.69s-.05,.46-.05,.69c0,.4,.06,.76,.18,1.09,.12,.33,.28,.61,.49,.84s.45,.41,.72,.54,.57,.19,.88,.19c.33,0,.66-.07,1-.22,.34-.15,.67-.39,.98-.71,.02,0,.05,.02,.08,.04s.07,.04,.1,.06,.05,.04,.08,.07,.03,.04,.03,.06c0,.01,0,.02,0,.02v.02c-.36,.49-.78,.85-1.28,1.09s-1.03,.36-1.62,.36c-.32,0-.61-.04-.88-.11s-.51-.18-.73-.32-.41-.29-.57-.48-.3-.38-.41-.6-.19-.44-.25-.68-.08-.48-.08-.72c0-.33,.04-.65,.12-.98s.2-.64,.37-.95c.16-.3,.35-.59,.59-.85,.23-.26,.49-.49,.78-.68,.29-.19,.61-.35,.96-.46s.73-.17,1.12-.17c.3,0,.57,.03,.83,.09s.48,.15,.67,.26c.18,.11,.33,.25,.44,.41s.16,.34,.16,.53c0,.13-.02,.24-.07,.34-.05,.1-.11,.18-.19,.25-.08,.07-.18,.12-.29,.16-.11,.04-.23,.05-.36,.05-.08,0-.16,0-.25-.02-.09-.01-.17-.04-.25-.07l-.02-.05Z"/><path class="cls-4" d="M59.51,27.87c.28-.79,.57-1.45,.89-2,.31-.55,.63-.99,.96-1.33,.32-.34,.65-.59,.97-.74s.63-.23,.92-.23c.2,0,.4,.03,.59,.1s.36,.17,.5,.31c.15,.14,.26,.32,.35,.54s.13,.48,.13,.79c0,.09,0,.22-.02,.38-.01,.16-.03,.34-.05,.54s-.04,.4-.06,.62c-.03,.22-.05,.43-.06,.64s-.03,.41-.05,.6c-.01,.19-.02,.35-.02,.49,0,.24,.01,.44,.03,.59s.06,.27,.12,.36,.13,.15,.22,.18,.2,.05,.33,.05c.19,0,.38-.02,.59-.07s.41-.11,.61-.19l.1,.24c-.13,.09-.3,.18-.49,.27s-.41,.18-.63,.26-.44,.14-.65,.19-.41,.07-.58,.07c-.2,0-.35-.05-.46-.14s-.2-.21-.25-.37-.09-.34-.11-.54c-.01-.21-.02-.43-.02-.67,0-.29,.01-.59,.03-.89s.05-.6,.08-.88c.03-.28,.05-.54,.08-.78s.04-.42,.04-.57c0-.34-.08-.6-.23-.78s-.37-.26-.63-.26c-.21,0-.43,.08-.66,.23-.23,.15-.47,.36-.7,.63s-.45,.58-.66,.94-.41,.75-.58,1.17-.31,.86-.42,1.32-.18,.92-.21,1.38l-1.16,.12h-.09c.02-.37,.05-.78,.07-1.22,.03-.44,.05-.91,.09-1.41,.03-.5,.06-1.01,.1-1.55,.03-.54,.07-1.09,.1-1.65s.07-1.12,.11-1.69,.07-1.13,.11-1.68c.03-.55,.07-1.1,.1-1.63s.06-1.04,.09-1.52c0-.07,.03-.14,.08-.19s.11-.1,.18-.13,.16-.06,.25-.07,.19-.02,.29-.02c.22,0,.45,.05,.68,.15-.08,.63-.16,1.21-.22,1.74s-.12,1.02-.18,1.47c-.05,.45-.1,.87-.14,1.26-.04,.39-.08,.77-.12,1.12s-.07,.71-.09,1.05-.06,.69-.09,1.04-.06,.72-.09,1.1-.06,.79-.1,1.23h.03Z"/><path class="cls-4" d="M19.36,33.6c.47,0,.91,.04,1.32,.11s.75,.17,1.05,.27,.52,.23,.69,.35,.25,.24,.25,.34c0,.21,0,.49-.03,.83s-.04,.75-.07,1.24h-.47c0-.06,0-.1,0-.14s0-.08,0-.12c0-.21-.03-.42-.08-.61s-.15-.38-.29-.56c-.14-.18-.32-.33-.52-.47s-.42-.25-.66-.34-.49-.16-.77-.21-.55-.07-.83-.07c-.49,0-.93,.07-1.32,.19s-.75,.31-1.06,.53c-.31,.23-.58,.5-.81,.81-.23,.31-.42,.65-.57,1.02s-.26,.75-.34,1.15-.11,.81-.11,1.22c0,.49,.05,.95,.14,1.38s.23,.83,.4,1.19,.38,.69,.63,.98,.52,.53,.83,.73c.31,.2,.64,.35,.99,.46s.73,.16,1.13,.16c.28,0,.56-.03,.85-.08,.29-.05,.59-.13,.89-.24s.6-.25,.91-.42,.61-.37,.92-.61c.03,.01,.06,.03,.1,.05s.07,.04,.11,.06c.03,.02,.06,.05,.08,.08s.04,.06,.04,.08c0,.02-.01,.05-.04,.08-.35,.34-.71,.62-1.08,.84s-.73,.41-1.09,.55-.73,.24-1.11,.3c-.37,.06-.74,.09-1.11,.09-.49,0-.96-.06-1.4-.17-.44-.12-.86-.28-1.24-.5s-.72-.48-1.03-.79c-.31-.31-.57-.65-.79-1.04s-.38-.8-.5-1.25c-.12-.45-.18-.93-.18-1.43s.06-.97,.17-1.46c.11-.49,.28-.96,.51-1.4s.51-.86,.85-1.25,.74-.72,1.2-1.01c.46-.29,.97-.51,1.54-.67,.57-.16,1.2-.25,1.89-.25Z"/><path class="cls-4" d="M24.75,44.68h-.09c.03-.3,.06-.62,.08-.97s.05-.7,.07-1.06c.02-.36,.04-.71,.06-1.07,.02-.35,.03-.68,.04-.99,.01-.3,.02-.58,.03-.82s0-.43,0-.57c0-.11,0-.21-.02-.3s-.04-.15-.07-.21-.09-.1-.17-.12-.17-.04-.29-.04c-.06,0-.12,0-.19,0s-.14,.02-.22,.03-.17,.03-.27,.05-.21,.04-.34,.07l-.08-.34c.6-.19,1.09-.32,1.46-.39,.37-.07,.62-.11,.76-.11,.24,0,.41,.06,.51,.18,.1,.12,.15,.3,.15,.53,0,.02,0,.09-.01,.19s-.02,.24-.03,.41c-.01,.17-.03,.37-.05,.59s-.04,.46-.06,.72c-.02,.25-.05,.52-.08,.8s-.06,.55-.09,.83h.05c.17-.6,.37-1.17,.59-1.7,.22-.53,.47-.98,.74-1.37s.57-.69,.9-.92c.33-.22,.69-.33,1.08-.33,.14,0,.27,.02,.39,.06s.22,.09,.31,.16c.09,.07,.16,.15,.21,.24s.08,.19,.08,.3c0,.14-.04,.27-.11,.4-.07,.13-.18,.24-.33,.34h-.04c-.15-.11-.3-.19-.43-.23s-.28-.07-.43-.07c-.16,0-.32,.03-.47,.08s-.29,.13-.42,.23c-.21,.16-.4,.37-.58,.64-.18,.26-.34,.56-.49,.88s-.28,.66-.4,1.02-.22,.7-.3,1.04c-.09,.34-.15,.65-.21,.95-.05,.3-.09,.55-.11,.75l-1.14,.12Z"/><path class="cls-4" d="M34.76,39.77c0-.25-.05-.46-.14-.64s-.22-.33-.37-.44-.32-.2-.52-.26-.38-.08-.58-.08c-.26,0-.47,.02-.65,.07s-.32,.11-.43,.19-.19,.18-.24,.29-.07,.23-.07,.36c0,.15,.03,.3,.1,.45,.06,.15,.16,.3,.28,.44l-.02,.05c-.21,.09-.41,.13-.62,.13-.12,0-.24-.02-.34-.05-.11-.03-.2-.08-.28-.14s-.14-.14-.18-.23-.07-.19-.07-.3c0-.18,.05-.36,.15-.52s.24-.31,.41-.44,.37-.25,.59-.36,.46-.19,.7-.27c.24-.07,.48-.13,.72-.17,.24-.04,.46-.06,.67-.06,.38,0,.7,.04,.98,.13,.27,.09,.49,.21,.66,.38,.17,.17,.29,.37,.37,.6s.12,.5,.12,.8c0,.2-.01,.43-.03,.68s-.04,.5-.07,.77-.05,.54-.07,.83c-.02,.29-.03,.57-.03,.85,0,.45,.1,.78,.29,1.01,.19,.23,.45,.34,.76,.34,.28,0,.59-.09,.93-.27l.16,.2c-.24,.21-.51,.37-.79,.47s-.59,.16-.9,.16c-.24,0-.45-.03-.65-.1s-.37-.17-.52-.3c-.14-.14-.26-.31-.34-.51s-.12-.44-.12-.71c0-.08,0-.16,0-.24,0-.08,.02-.17,.03-.26h-.03c-.16,.27-.33,.53-.54,.79-.2,.26-.43,.49-.67,.69-.24,.2-.51,.37-.78,.49-.28,.13-.57,.19-.87,.19-.25,0-.48-.04-.68-.11s-.38-.18-.53-.31-.26-.28-.34-.46-.12-.37-.12-.59c0-.27,.06-.52,.18-.74s.28-.42,.49-.6,.46-.33,.75-.46c.29-.13,.6-.23,.95-.32s.7-.15,1.08-.19c.38-.04,.77-.06,1.16-.06,.03-.2,.05-.38,.06-.57,.01-.18,.02-.38,.02-.61Zm-3.34,3.2c0,.12,.02,.24,.05,.35,.03,.11,.08,.21,.15,.29s.15,.15,.26,.2,.23,.07,.37,.07c.16,0,.33-.03,.51-.1s.34-.16,.51-.27,.33-.25,.48-.41c.15-.16,.29-.34,.42-.52s.23-.39,.31-.6c.08-.21,.14-.42,.16-.64-.27,0-.53,.02-.8,.05-.26,.02-.52,.06-.75,.11s-.46,.11-.66,.2-.38,.18-.52,.3-.26,.26-.34,.42c-.08,.16-.12,.35-.12,.57Z"/><path class="cls-4" d="M39.2,38.16c.01-.29,.03-.57,.05-.83,.02-.27,.05-.53,.09-.79,.04-.26,.08-.52,.13-.78,.05-.26,.12-.53,.19-.81,.1-.36,.22-.69,.38-.98,.16-.29,.33-.55,.53-.77,.2-.23,.41-.42,.64-.58s.47-.29,.71-.4,.49-.18,.74-.23,.49-.07,.73-.07c.35,0,.66,.04,.93,.12,.27,.08,.5,.18,.69,.31s.33,.27,.43,.43c.1,.16,.15,.33,.15,.49,0,.12-.03,.23-.07,.32-.05,.09-.12,.17-.2,.24-.08,.06-.18,.11-.29,.15s-.23,.05-.35,.05c-.17,0-.34-.03-.52-.1l-.02-.05c.07-.12,.12-.23,.16-.33,.03-.09,.05-.19,.05-.29,0-.15-.04-.28-.11-.38-.07-.11-.17-.19-.28-.26-.12-.07-.24-.12-.39-.15s-.28-.05-.42-.05c-.29,0-.54,.04-.76,.11s-.41,.18-.57,.31-.3,.28-.41,.45c-.11,.17-.2,.36-.28,.55s-.14,.4-.18,.61c-.05,.21-.09,.41-.12,.61-.04,.27-.08,.53-.11,.78-.03,.24-.06,.49-.08,.73-.02,.25-.04,.5-.06,.75-.01,.26-.03,.54-.04,.84,.59,.02,1.14,.03,1.68,.04,.53,0,1.04,.02,1.52,.02,.06-.5,.12-.97,.18-1.42,.06-.45,.13-.85,.2-1.19,.01-.08,.05-.15,.1-.2,.05-.05,.11-.09,.17-.13,.07-.03,.14-.05,.21-.07s.15-.02,.22-.02c.12,0,.23,.01,.32,.03,.09,.02,.18,.05,.26,.09-.11,.47-.2,.95-.27,1.44s-.14,.99-.2,1.47c.55,0,1.02,0,1.43-.02,.41-.01,.74-.03,1-.07,.02,.05,.03,.1,.04,.14,0,.05,.01,.09,.01,.12,0,.08-.03,.15-.09,.19s-.16,.08-.3,.1-.32,.03-.54,.04c-.22,0-.5,0-.82,0h-.35c-.07,0-.14,0-.21,0-.07,0-.15,0-.23,0-.04,.33-.07,.64-.09,.94-.03,.3-.05,.59-.06,.86-.01,.27-.03,.52-.03,.75s-.01,.43-.01,.61c0,.33,.02,.63,.06,.89s.11,.48,.21,.66c.1,.18,.24,.32,.42,.42s.4,.14,.67,.14c.2,0,.41-.03,.66-.09,.24-.06,.51-.15,.82-.28,.1,.08,.15,.19,.17,.31-.22,.13-.45,.24-.68,.35s-.45,.19-.67,.27-.43,.13-.64,.17-.4,.06-.59,.06c-.24,0-.46-.04-.67-.11-.2-.08-.37-.21-.52-.4-.14-.19-.26-.46-.34-.79-.08-.33-.12-.74-.12-1.25,0-.56,.02-1.14,.06-1.74,.04-.6,.09-1.19,.16-1.78-.26,0-.53-.01-.8-.02-.28,0-.55-.01-.82-.02s-.54-.01-.8-.02c-.26,0-.5,0-.73,0-.01,.37-.03,.77-.05,1.21s-.05,.88-.09,1.35-.08,.94-.13,1.42c-.05,.48-.11,.95-.19,1.4s-.16,.89-.26,1.31c-.1,.41-.22,.79-.35,1.13-.21,.53-.45,.97-.72,1.33-.27,.35-.55,.64-.86,.86-.3,.21-.61,.37-.94,.46s-.65,.14-.97,.14c-.28,0-.54-.03-.77-.08-.24-.05-.44-.12-.62-.21s-.31-.2-.41-.31c-.1-.12-.15-.25-.15-.38,0-.07,.02-.15,.06-.22s.1-.14,.16-.19c.07-.06,.16-.1,.25-.14,.1-.04,.2-.05,.31-.05,.11,.16,.22,.3,.35,.41s.26,.21,.41,.28,.3,.13,.45,.16,.31,.05,.47,.05c.42,0,.77-.12,1.06-.35,.29-.23,.53-.56,.73-.98,.2-.42,.35-.93,.47-1.53s.2-1.26,.26-2c.06-.73,.1-1.53,.12-2.38,.02-.85,.03-1.74,.04-2.68-.34,0-.66,.01-.94,.03-.29,.02-.53,.06-.73,.12-.01-.03-.02-.06-.02-.09,0-.07,.04-.14,.12-.21,.08-.07,.2-.12,.35-.17s.33-.09,.54-.12,.44-.05,.7-.06Z"/><path class="cls-4" d="M53.59,43.11s.05,.02,.09,.04c.03,.02,.07,.04,.09,.06s.05,.04,.08,.07c.02,.02,.03,.05,.03,.07,0,.01,0,.02-.02,.04-.2,.24-.42,.45-.65,.63-.24,.18-.48,.33-.73,.45-.25,.12-.51,.21-.77,.26s-.52,.09-.77,.09c-.43,0-.83-.08-1.19-.23s-.67-.36-.93-.62-.47-.57-.61-.93c-.15-.35-.22-.74-.22-1.14,0-.33,.04-.66,.13-1s.21-.65,.37-.95,.36-.58,.59-.84c.23-.26,.49-.48,.79-.67,.3-.19,.62-.34,.97-.45,.35-.11,.73-.16,1.14-.16,.27,0,.52,.03,.77,.09s.45,.15,.64,.27c.18,.11,.33,.26,.44,.43s.16,.36,.16,.58c0,.32-.12,.59-.36,.83-.24,.24-.57,.44-1,.6s-.92,.3-1.5,.4-1.19,.18-1.86,.23v.08c0,.4,.06,.76,.18,1.09s.28,.61,.49,.84c.21,.24,.45,.42,.73,.55s.58,.2,.9,.2,.66-.07,1-.21c.34-.14,.69-.36,1.04-.67Zm-1.02-3.74c0-.14-.03-.28-.09-.4s-.13-.23-.23-.32c-.1-.09-.22-.16-.36-.22s-.29-.08-.45-.08c-.24,0-.45,.04-.64,.11s-.36,.17-.52,.29c-.15,.12-.29,.27-.4,.43-.12,.16-.21,.34-.3,.52-.08,.18-.15,.37-.2,.56s-.09,.38-.11,.56c.51-.03,.98-.08,1.38-.16,.41-.08,.75-.17,1.03-.29,.28-.12,.5-.26,.64-.43,.15-.16,.22-.36,.22-.57Z"/><path class="cls-4" d="M55.76,44.68h-.09c.03-.3,.06-.62,.08-.97s.05-.7,.07-1.06c.02-.36,.04-.71,.06-1.07,.01-.35,.03-.68,.04-.99,.01-.3,.02-.58,.03-.82,0-.24,0-.43,0-.57,0-.11,0-.21-.02-.3s-.04-.15-.07-.21c-.04-.06-.09-.1-.17-.12s-.17-.04-.29-.04c-.06,0-.12,0-.19,0s-.14,.02-.22,.03-.17,.03-.27,.05-.21,.04-.34,.07l-.08-.34c.6-.19,1.09-.32,1.46-.39,.37-.07,.62-.11,.76-.11,.24,0,.41,.06,.51,.18,.11,.12,.16,.3,.16,.53,0,.02,0,.09-.01,.19s-.02,.24-.03,.41c-.01,.17-.03,.37-.05,.59s-.04,.46-.06,.72c-.03,.25-.05,.52-.08,.8s-.06,.55-.09,.83h.05c.17-.6,.37-1.17,.59-1.7,.22-.53,.47-.98,.74-1.37s.57-.69,.9-.92c.33-.22,.69-.33,1.08-.33,.14,0,.27,.02,.39,.06s.22,.09,.31,.16c.09,.07,.16,.15,.21,.24s.08,.19,.08,.3c0,.14-.04,.27-.11,.4-.07,.13-.18,.24-.33,.34h-.04c-.15-.11-.3-.19-.43-.23-.13-.05-.28-.07-.43-.07-.16,0-.32,.03-.47,.08s-.29,.13-.42,.23c-.21,.16-.4,.37-.58,.64-.18,.26-.34,.56-.49,.88-.15,.32-.28,.66-.4,1.02s-.22,.7-.3,1.04c-.09,.34-.15,.65-.21,.95-.05,.3-.09,.55-.11,.75l-1.14,.12Z"/><path class="cls-4" d="M62.3,42.87c.03,.24,.1,.44,.22,.61,.12,.17,.27,.31,.45,.42s.37,.19,.59,.24,.43,.08,.64,.08c.2,0,.39-.02,.58-.07s.35-.11,.49-.2,.25-.19,.34-.32c.08-.13,.13-.27,.13-.43s-.05-.31-.14-.43-.21-.24-.36-.34-.33-.2-.53-.28c-.2-.09-.41-.18-.63-.27-.19-.08-.39-.16-.58-.24-.2-.08-.38-.16-.56-.26s-.35-.19-.51-.3c-.16-.11-.3-.23-.41-.36-.12-.13-.21-.28-.28-.44-.07-.16-.1-.34-.1-.54,0-.21,.04-.41,.13-.59s.2-.34,.35-.49c.15-.15,.32-.27,.52-.38s.41-.2,.63-.27,.45-.13,.69-.16c.24-.03,.47-.05,.69-.05,.29,0,.56,.03,.82,.08,.26,.06,.48,.14,.68,.24s.35,.23,.46,.38c.11,.15,.17,.32,.17,.5,0,.07-.01,.15-.04,.23s-.08,.16-.15,.24-.16,.13-.27,.18-.25,.08-.41,.08c-.15,0-.31-.02-.48-.06l-.02-.05c.05-.1,.09-.19,.11-.27s.03-.16,.03-.23c0-.14-.05-.26-.13-.36-.08-.1-.18-.18-.31-.24s-.26-.11-.41-.14c-.15-.03-.3-.04-.44-.04-.26,0-.49,.03-.69,.09s-.37,.14-.51,.23c-.14,.1-.25,.21-.32,.33-.08,.12-.11,.25-.11,.39,0,.17,.05,.32,.16,.46,.11,.13,.24,.26,.42,.37s.37,.22,.6,.32c.22,.1,.46,.2,.71,.3,.28,.11,.55,.23,.82,.35,.27,.12,.51,.26,.73,.41s.39,.33,.52,.52c.13,.2,.2,.43,.2,.7,0,.32-.08,.6-.25,.85-.17,.25-.39,.46-.66,.63s-.59,.3-.95,.39c-.36,.09-.73,.13-1.11,.13-.19,0-.39-.01-.59-.04-.21-.02-.4-.06-.6-.11s-.37-.11-.54-.18c-.17-.07-.32-.16-.45-.25-.13-.09-.23-.2-.3-.32-.07-.11-.11-.24-.11-.38,0-.12,.03-.22,.09-.31,.06-.08,.14-.15,.24-.2s.21-.09,.33-.12c.12-.02,.25-.04,.37-.04l.04,.03Z"/></g></svg>